<svg id="my_svg" xmlns="http://www.w3.org/2000/svg" xml:space="preserve" fill="#f5f5f5" style="enable-background:new 0 0 1024 512"><rect  fill="none"/><g class="currentLayer"><g><path d="M193 452.1v-37.4h-82.7V471.8H193zM6 377.2V471.8h82.6v-132H6zM88.6 190v-37.5H6v56.2h82.6zM88.6 302.3v-74.9H6v93.7h82.6zM193 302.3v-74.9h-82.7v93.7H193zM193 377.2v-37.4h-82.7V396H193zM193 190v-74.9h-82.7V208.7H193zM193 77.6V40.2h-82.7v56.2H193zM214.7 339.8h82.6v18.7h-82.6zM297.3 452.1v-74.9h-82.6V471.8h82.6zM319 227.4h82.6v18.7H319zM401.7 452.1V339.8H319v132h82.7zM401.7 302.3v-37.4H319v56.2h82.7zM506 227.4V190h-82.6v56.2H506zM423.4 77.6H506v18.7h-82.6zM506 152.5v-37.4h-82.6v56.2H506zM506 339.8v-74.9h-82.6V358.5H506zM506 452.1v-74.9h-82.6V471.8H506z"/></g><g class="selected"><path d="M717.138 450.031v-37.4h-82.7V469.731h82.7zM530.138 375.131V469.731h82.6v-132h-82.6zM612.738 187.931v-37.5h-82.6v56.2h82.6zM612.738 300.231v-74.9h-82.6v93.7h82.6zM717.138 300.231v-74.9h-82.7v93.7h82.7zM717.138 375.131v-37.4h-82.7v56.2h82.7zM717.138 187.931v-74.9h-82.7V206.631h82.7zM717.138 75.531v-37.4h-82.7v56.2h82.7zM738.838 337.731h82.6v18.7h-82.6zM821.438 450.031v-74.9h-82.6V469.731h82.6zM843.138 225.331h82.6v18.7h-82.6zM925.838 450.031V337.731h-82.7v132h82.7zM925.838 300.231v-37.4h-82.7v56.2h82.7zM1030.138 225.331v-37.4h-82.6v56.2h82.6zM947.538 75.531h82.6v18.7h-82.6zM1030.138 150.431v-37.4h-82.6v56.2h82.6zM1030.138 337.731v-74.9h-82.6V356.431h82.6zM1030.138 450.031v-74.9h-82.6V469.731h82.6z"/></g></g></svg>